PathFileType	4	(X/Y/Z)	OpenSim_Sub04_CSStiffKnee_Accel.trc
DataRate	CameraRate	NumFrames	NumMarkers	Units	OrigDataRate	OrigDataStartFrame	OrigNumFrames
100	100	34	8	m	100	6487	7413
Frame#	Time	torso_imu_offset_imu	pelvis_imu_offset_imu	tibia_r_imu_offset_imu	femur_r_imu_offset_imu	tibia_l_imu_offset_imu	femur_l_imu_offset_imu	toes_r_imu_offset_imu	toes_l_imu_offset_imu
				X1	Y1	Z1	X2	Y2	Z2	X3	Y3	Z3	X4	Y4	Z4	X5	Y5	Z5	X6	Y6	Z6	X7	Y7	Z7	X8		Y8	Z8	

6487	64.86000000	-10.14927768	0.59134698	9.43377541	10.19863244	1.02970559	7.71165879	10.27167329	5.21209931	0.60417989	15.16026451	-3.29226428	1.24898434	10.74380236	-2.86227796	2.02281725	12.07909222	-4.24243278	-2.31724472	6.14699251	-0.78106947	8.60862757	9.79439780	3.91268684	10.67090856
6488	64.87000000	-9.88350917	0.68929356	8.98962647	9.59188621	1.17651618	7.43087988	10.37502558	5.45748331	-0.15230917	14.43639015	-4.30777200	0.70464952	10.19171324	-3.18351669	2.43968856	11.35860740	-3.52723754	-1.79195084	6.24847602	-1.43346806	7.92437541	9.21505218	5.57430964	10.80688074
6489	64.88000000	-9.65005426	0.83599304	8.47961954	8.94487576	1.40436236	7.14952063	10.14862351	5.02159070	-0.73576613	12.21300977	-5.01824077	-0.40112362	9.12932276	-3.94545639	1.80863562	10.79143609	-2.89882777	-1.07319231	6.63473356	-1.60594338	7.59683178	8.02416445	6.35106919	11.19371632
6490	64.89000000	-9.59229209	0.97302179	8.03122858	8.50443379	1.80628034	6.89944571	9.19666144	4.50237078	-0.99528041	11.68003833	-5.80758495	-0.81250567	8.54255174	-4.63010951	0.72726378	10.43988304	-2.42486030	-0.48423168	6.76228372	-1.51551091	7.38231222	9.02444333	5.43895555	11.63496837
6491	64.90000000	-9.66622471	1.10878046	7.75262178	8.22066123	2.22998768	6.65644550	8.66203630	4.74184591	-1.12649795	11.03803285	-5.93143630	-0.39164173	8.08999704	-5.68423540	0.40618715	10.18067549	-2.17716872	-0.29556686	6.37889830	-1.96597270	7.41376778	8.78915489	4.66558690	11.05646392
6492	64.91000000	-9.68496155	1.19775073	7.58384672	8.14491217	2.54493042	6.44482315	9.01378634	5.46201865	-0.82492449	9.78687397	-5.56102658	0.14260917	7.13774207	-6.96156795	-0.04508044	9.88063235	-2.23354779	-0.53979223	5.99367804	-1.89618824	7.87658673	9.66742665	3.08818979	8.83207538
6493	64.92000000	-9.60628837	0.99894354	7.35579831	8.24494749	2.69832243	6.26406429	9.61146225	5.77711869	-0.45576915	8.02173862	-4.79796415	0.32327404	6.32557546	-8.09484190	-0.74341581	9.54928567	-2.55446365	-0.94051408	6.18555009	-1.48960570	7.81779262	6.46877933	5.38916428	10.86596113
6494	64.93000000	-9.38173812	0.65222073	7.30925762	8.39379951	2.55647776	6.01172823	9.92050237	5.53778207	-0.57777820	7.36126608	-4.00067530	0.29155913	5.43973107	-9.18213634	-1.77755765	9.12853263	-2.84534709	-1.13203478	6.02914734	-1.47235324	7.87209127	0.07080283	10.13448420	20.03569537
6495	64.94000000	-9.11111047	0.40346923	7.33132702	8.47454141	2.31928234	5.78872733	10.17521247	5.10616573	-0.54128505	7.43583406	-3.49069992	0.15967153	4.03587250	-10.18819747	-2.90569650	8.70506293	-3.22258943	-1.38080471	5.84884132	-1.54726485	8.10802417	-5.02804169	9.58711113	21.82798100
6496	64.95000000	-8.89408106	0.22358642	7.43655449	8.50972662	2.13133369	5.62605510	10.51268595	4.43877273	-0.47283962	8.00884413	-3.21220565	0.00343004	4.05483238	-8.91558746	-1.75615757	8.60941270	-4.07370747	-1.82372771	6.07048933	-1.63008089	7.89356105	-5.60750825	6.70915025	18.98599923
6497	64.96000000	-8.79880326	0.18212041	7.52063508	8.46095581	1.90367281	5.50029927	10.50837432	3.74875089	-0.77508989	8.70882030	-3.11640294	0.01781670	4.73414176	-4.52412765	0.24942671	9.06451124	-5.47618560	-2.01867953	6.09703236	-1.56774518	7.84894202	-4.59033939	4.65244943	17.82542208
6498	64.97000000	-8.53325463	0.26277165	7.56134564	8.37782947	1.64104459	5.50951072	10.24177618	3.13569786	-0.44173634	9.41827263	-3.14705060	0.10505695	4.56348355	-1.23686113	1.22379107	9.62416161	-6.14302311	-2.20100061	6.25815411	-1.51674428	7.72154464	-2.91998396	4.15866019	16.86136914
6499	64.98000000	-8.05155645	0.41829363	7.49004189	8.22928284	1.40973109	5.58383268	9.77688344	2.61442963	-0.13520233	9.87713374	-3.16456840	0.11636145	4.95829588	-0.99277982	1.92696196	9.31362867	-5.24238296	-2.23467287	6.31478887	-1.53227679	7.54810024	-0.13970413	4.44218841	15.94449399
6500	64.99000000	-7.54199205	0.58369353	7.39391169	8.01428165	1.21091556	5.69833844	9.18520042	2.73108985	0.26725691	9.91206515	-2.96739630	0.03544596	6.63645084	-1.84457250	1.73081145	8.52463604	-3.72763297	-1.68829348	6.08196423	-1.40529780	7.73975316	1.58074100	3.64295011	14.24061603
6501	65	-7.16746019	0.74896888	7.33278163	7.73507614	1.01579475	5.75011376	9.04941210	3.11125277	0.65063404	9.59883713	-2.59997227	0.12616481	8.52811842	-2.09890552	1.06325898	8.01964255	-2.57013276	-0.73727001	5.70206160	-1.40868923	8.09213422	2.85691471	2.60534032	12.50063853
6502	65.01000000	-7.05229779	0.81718093	7.13042780	7.41422706	0.88156278	5.70609433	9.44406831	2.88304707	0.90487118	9.20915350	-2.21407312	0.26490578	9.26408157	-1.86361803	0.97612079	7.75114402	-1.94797809	0.02161185	5.80754345	-1.41722720	7.99158487	4.45463292	2.42618397	11.23361732
6503	65.02000000	-7.04565557	0.79779588	6.95375787	7.01354941	0.77902554	5.52630074	9.92716551	2.23302024	1.15323000	8.82742740	-1.93217007	0.44003112	8.79041700	-1.49474362	1.43302953	7.73736492	-1.77733933	0.33808629	5.87780635	-1.39753993	7.95478342	6.05673480	2.58331395	10.31017389
6504	65.03000000	-7.00895335	0.74910857	6.77911719	6.57138782	0.64863523	5.32589287	9.98085493	2.21055082	1.09472297	8.56156959	-1.85992383	0.60338551	8.17087530	-1.31182970	2.02467431	7.94377845	-1.86799089	0.56011563	5.64138780	-1.36082447	8.06530199	6.86798301	2.44058939	9.37837237
6505	65.04000000	-7.01222979	0.67034243	6.68930911	6.22551976	0.59580364	5.19353594	9.64203853	2.79093561	1.31933581	8.51893348	-1.95868783	0.73282432	8.01175558	-1.95098905	2.18053082	8.30057681	-1.99280345	0.45328831	5.82150126	-1.18242531	7.93005521	6.97713599	2.26262638	8.72756121
6506	65.05000000	-7.05058150	0.53250219	6.68587010	5.91626749	0.58784867	5.06330212	9.58149177	3.01357386	1.42668901	8.60513039	-2.06736372	0.82179525	8.12604250	-3.08933161	2.05804870	8.53185512	-1.97301902	0.18868197	5.66827880	-1.22350737	8.14159535	6.97479398	2.47672775	8.43558709
6507	65.06000000	-7.11778455	0.45061994	6.53061318	5.68435765	0.66694310	4.84479569	9.75410276	2.61815337	1.32162277	8.70143595	-2.22389682	0.85355534	8.02354446	-3.85411297	1.96733165	8.49531836	-1.87113570	-0.03195678	5.77119399	-1.04354390	8.12199354	6.96442163	2.50068549	8.30602335
6508	65.07000000	-7.24189890	0.35548567	6.43000190	5.64945640	1.00088469	4.60977473	9.71074459	2.13152627	1.19184830	8.82061427	-2.36165501	0.76718194	7.84395836	-3.76281441	1.90800894	8.42827268	-1.70980873	-0.27823763	5.88705357	-0.96814729	7.91029113	6.70738461	2.43139916	8.28810976
6509	65.08000000	-7.29209197	0.30401214	6.40675806	5.76644181	1.37343972	4.51527793	9.64434894	1.66681443	1.09811285	8.89672381	-2.45729652	0.71664413	7.75015926	-3.21944529	2.18336895	8.22919048	-1.42811723	-0.47623099	5.82189643	-1.20998821	7.94271697	6.34945386	2.84165232	8.22393485
6510	65.09000000	-7.33586998	0.33602263	6.41364798	6.10171572	1.72385999	4.41656389	9.73194591	1.17252479	0.81591976	8.89152490	-2.59450729	0.66965028	7.71514627	-2.69705275	2.63638446	7.86388406	-1.13368674	-0.60533417	5.77232235	-1.15271306	8.12812061	6.23334231	3.11237187	8.25741235
6511	65.10000000	-7.44826907	0.38368878	6.48617125	6.46297839	2.07933665	4.41597641	9.81805947	0.85657226	0.66739465	8.80993008	-2.68187905	0.57348653	7.69161660	-2.46777478	2.80204762	7.43061589	-0.83420084	-0.44201304	5.99640164	-1.31123264	7.74738796	6.29900869	3.16382936	8.54927150
6512	65.11000000	-7.46148095	0.46179199	6.63381458	6.84733075	2.46904754	4.38017302	9.79955715	0.60854834	0.59371303	8.68763723	-2.67358399	0.50272008	7.70614100	-2.56042758	2.66155493	7.31793421	-0.78093516	-0.46257431	5.92012219	-1.42053977	7.70546815	6.55811646	3.41787681	8.98536018
6513	65.12000000	-7.38821712	0.54664688	6.82824760	7.24238637	2.74428457	4.33457332	9.54083004	0.58342674	0.67139936	8.56344047	-2.66156603	0.18565497	7.83786556	-2.76311779	2.29684892	7.34744247	-0.73666870	-0.55509898	5.80348141	-1.35156619	7.88103514	6.66406711	3.55807892	9.35762630
6514	65.13000000	-7.41099667	0.57343500	7.05295470	7.58845632	2.95394123	4.39215623	9.39449544	0.72098316	0.70063238	8.41674438	-2.84005469	-0.14718813	8.07032098	-3.14651243	1.81281323	7.38869323	-0.67862071	-0.30323093	5.82459855	-1.27605666	7.89517111	6.67036215	3.51361428	9.62863721
6515	65.14000000	-7.45829095	0.48457538	7.32377314	7.84728885	3.05180306	4.55233418	9.60717357	0.79130602	0.75728423	9.49959370	-2.83222447	-0.12808313	8.51045906	-3.56184727	1.45263323	7.73947621	-0.72813971	-0.10041919	5.87205735	-1.24869780	7.96090384	6.98605014	3.47033761	9.74680172
6516	65.15000000	-7.42145343	0.35964740	7.49131255	8.02579492	3.04800831	4.72694244	9.86064328	0.54269273	0.96219678	9.12067281	-2.91358267	-0.11558980	8.83823600	-3.75997257	1.36682104	8.09435880	-0.68095371	-0.12576775	6.09440837	-1.03991285	7.88264703	7.31037619	3.29134359	9.83138416
6517	65.16000000	-7.34243840	0.30759471	7.60990922	8.10014739	3.04028820	4.77375249	9.90295352	0.34357540	0.80950849	8.59294417	-2.86798019	-0.06395655	9.01987369	-4.06868325	1.24887853	8.54739039	-0.65185855	-0.15091241	6.09473303	-0.90731348	7.83280299	7.51918571	3.34497944	9.97377394
6518	65.17000000	-7.31574176	0.28522414	7.83315557	8.01535035	2.89172984	4.74758599	9.92546765	0.59979056	0.86311964	9.10697754	-2.34991153	-0.00474781	9.14461053	-4.68466140	0.93161565	8.99320125	-0.62493013	-0.35782298	5.99229319	-1.14729199	7.83976325	7.97116745	3.43888028	10.10536639
6519	65.18000000	-7.28432214	0.31842497	7.70878713	7.90197579	2.68847467	4.69954683	9.77866925	0.95520892	0.80564323	8.93068183	-2.32792809	0.05798718	9.13935870	-5.28913450	0.49379850	9.39875357	-0.74826856	-0.59880827	5.77961413	-1.24314824	8.09666681	8.30222646	3.14988313	10.06680051
6520	65.19000000	-7.34743220	0.33779764	7.68526339	7.84094973	2.40677386	4.74664265	9.62191508	1.17360375	0.81127893	8.72677495	-2.18513324	0.03946822	9.09480691	-5.97702551	-0.00054491	9.72169052	-0.98475337	-0.82877247	6.00014938	-1.34515409	7.86325930	8.69466615	2.48722940	9.79495264
